<svg class="h-8 md:h-10" viewBox="0 0 204 37" xmlns="http://www.w3.org/2000/svg">
                        <g fill-rule="nonzero" fill="none">
                            <path d="M4 6h9.3a2 2 0 0 1 2 2v17a2 2 0 0 1-2 2H4z"
                                    fill="#f8fafc" stroke="#0f172a" stroke-width="1.6" stroke-linejoin="round"/>
                            <path d="M28 6h-9.3a2 2 0 0 0-2 2v17a2 2 0 0 0 2 2H28z"
                                    fill="#06b6d4" stroke="#0f172a" stroke-width="1.6" stroke-linejoin="round"/>
                            <path d="M16 6v19" stroke="#0f172a" stroke-width="1.6"/>
                            <path transform="translate(30,5)" d="M 41.496 21.336 L 36.96 7.756 Q 36.848 7.14 37.016 6.846 Q 37.184 6.552 37.604 6.552 Q 37.828 6.552 38.052 6.678 Q 38.276 6.804 38.388 7.056 L 42.532 19.544 L 42.168 19.544 L 45.976 7.224 Q 46.06 6.916 46.284 6.734 Q 46.508 6.552 46.816 6.552 Q 47.124 6.552 47.334 6.734 Q 47.544 6.916 47.656 7.224 L 51.576 19.544 L 51.072 19.544 L 55.216 7.056 Q 55.44 6.552 56 6.552 Q 56.504 6.552 56.686 6.944 Q 56.868 7.336 56.672 7.756 L 52.164 21.336 Q 52.08 21.588 51.87 21.728 Q 51.66 21.868 51.352 21.868 Q 51.072 21.868 50.848 21.728 Q 50.624 21.588 50.568 21.336 L 46.564 8.904 L 46.928 8.904 L 43.064 21.336 Q 42.952 21.616 42.742 21.742 Q 42.532 21.868 42.28 21.868 Q 42 21.868 41.79 21.728 Q 41.58 21.588 41.496 21.336 Z M 155.876 14.728 L 143.556 14.728 L 143.556 13.272 L 156.324 13.272 L 155.092 14.196 Q 155.148 12.376 154.476 10.976 Q 153.804 9.576 152.558 8.778 Q 151.312 7.98 149.632 7.98 Q 148.036 7.98 146.79 8.778 Q 145.544 9.576 144.83 10.976 Q 144.116 12.376 144.116 14.224 Q 144.116 16.044 144.872 17.444 Q 145.628 18.844 146.972 19.642 Q 148.316 20.44 150.052 20.44 Q 151.144 20.44 152.25 20.062 Q 153.356 19.684 154 19.068 Q 154.224 18.844 154.546 18.83 Q 154.868 18.816 155.092 19.012 Q 155.4 19.264 155.414 19.572 Q 155.428 19.88 155.148 20.132 Q 154.252 20.944 152.81 21.476 Q 151.368 22.008 150.052 22.008 Q 147.84 22.008 146.118 21.014 Q 144.396 20.02 143.416 18.256 Q 142.436 16.492 142.436 14.224 Q 142.436 11.928 143.36 10.178 Q 144.284 8.428 145.908 7.42 Q 147.532 6.412 149.632 6.412 Q 151.704 6.412 153.3 7.378 Q 154.896 8.344 155.792 10.038 Q 156.688 11.732 156.688 13.944 Q 156.688 14.308 156.464 14.518 Q 156.24 14.728 155.876 14.728 Z M 13.972 9.576 L 13.972 0.84 Q 13.972 0.448 14.21 0.224 Q 14.448 0 14.812 0 Q 15.204 0 15.428 0.224 Q 15.652 0.448 15.652 0.84 L 15.652 14.364 Q 15.624 16.548 14.588 18.284 Q 13.552 20.02 11.802 21.028 Q 10.052 22.036 7.84 22.036 Q 5.6 22.036 3.822 21.014 Q 2.044 19.992 1.022 18.214 Q 0 16.436 0 14.196 Q 0 11.956 1.022 10.192 Q 2.044 8.428 3.822 7.406 Q 5.6 6.384 7.84 6.384 Q 9.856 6.384 11.466 7.252 Q 13.076 8.12 13.972 9.576 Z M 136.556 9.576 L 136.556 0.84 Q 136.556 0.448 136.794 0.224 Q 137.032 0 137.396 0 Q 137.788 0 138.012 0.224 Q 138.236 0.448 138.236 0.84 L 138.236 14.364 Q 138.208 16.548 137.172 18.284 Q 136.136 20.02 134.386 21.028 Q 132.636 22.036 130.424 22.036 Q 128.184 22.036 126.406 21.014 Q 124.628 19.992 123.606 18.214 Q 122.584 16.436 122.584 14.196 Q 122.584 11.956 123.606 10.192 Q 124.628 8.428 126.406 7.406 Q 128.184 6.384 130.424 6.384 Q 132.44 6.384 134.05 7.252 Q 135.66 8.12 136.556 9.576 Z M 72.24 21.028 L 72.24 13.496 Q 72.24 11.648 71.526 10.444 Q 70.812 9.24 69.594 8.638 Q 68.376 8.036 66.836 8.036 Q 65.324 8.036 64.12 8.61 Q 62.916 9.184 62.216 10.192 Q 61.516 11.2 61.516 12.46 L 60.116 12.46 Q 60.228 10.724 61.152 9.338 Q 62.076 7.952 63.56 7.154 Q 65.044 6.356 66.836 6.356 Q 68.852 6.356 70.462 7.182 Q 72.072 8.008 72.996 9.59 Q 73.92 11.172 73.92 13.496 L 73.92 21.028 Q 73.92 21.392 73.682 21.63 Q 73.444 21.868 73.08 21.868 Q 72.716 21.868 72.478 21.63 Q 72.24 21.392 72.24 21.028 Z M 82.32 21.868 L 81.76 21.868 Q 80.696 21.868 79.87 21.28 Q 79.044 20.692 78.582 19.656 Q 78.12 18.62 78.12 17.248 L 78.12 0.84 Q 78.12 0.448 78.358 0.224 Q 78.596 0 78.96 0 Q 79.352 0 79.576 0.224 Q 79.8 0.448 79.8 0.84 L 79.8 17.248 Q 79.8 18.536 80.346 19.362 Q 80.892 20.188 81.76 20.188 L 82.46 20.188 Q 82.768 20.188 82.964 20.412 Q 83.16 20.636 83.16 21.028 Q 83.16 21.392 82.936 21.63 Q 82.712 21.868 82.32 21.868 Z M 27.692 22.036 Q 25.452 22.036 23.674 21.014 Q 21.896 19.992 20.874 18.214 Q 19.852 16.436 19.852 14.224 Q 19.852 11.984 20.874 10.206 Q 21.896 8.428 23.674 7.406 Q 25.452 6.384 27.692 6.384 Q 29.932 6.384 31.696 7.406 Q 33.46 8.428 34.482 10.206 Q 35.504 11.984 35.504 14.224 Q 35.504 16.436 34.482 18.214 Q 33.46 19.992 31.696 21.014 Q 29.932 22.036 27.692 22.036 Z M 92.4 22.036 Q 90.16 22.036 88.382 21.014 Q 86.604 19.992 85.582 18.214 Q 84.56 16.436 84.56 14.224 Q 84.56 11.984 85.582 10.206 Q 86.604 8.428 88.382 7.406 Q 90.16 6.384 92.4 6.384 Q 94.64 6.384 96.404 7.406 Q 98.168 8.428 99.19 10.206 Q 100.212 11.984 100.212 14.224 Q 100.212 16.436 99.19 18.214 Q 98.168 19.992 96.404 21.014 Q 94.64 22.036 92.4 22.036 Z M 119.224 14.224 L 118.524 15.344 Q 118.524 17.248 117.586 18.76 Q 116.648 20.272 115.052 21.154 Q 113.456 22.036 111.412 22.036 Q 109.172 22.036 107.394 21.014 Q 105.616 19.992 104.594 18.214 Q 103.572 16.436 103.572 14.224 Q 103.572 11.984 104.594 10.206 Q 105.616 8.428 107.394 7.406 Q 109.172 6.384 111.412 6.384 Q 113.652 6.384 115.416 7.406 Q 117.18 8.428 118.202 10.206 Q 119.224 11.984 119.224 14.224 Z M 7.84 20.468 Q 9.604 20.468 10.99 19.642 Q 12.376 18.816 13.174 17.402 Q 13.972 15.988 13.972 14.196 Q 13.972 12.404 13.174 11.004 Q 12.376 9.604 10.99 8.778 Q 9.604 7.952 7.84 7.952 Q 6.104 7.952 4.704 8.778 Q 3.304 9.604 2.492 11.004 Q 1.68 12.404 1.68 14.196 Q 1.68 15.988 2.492 17.402 Q 3.304 18.816 4.704 19.642 Q 6.104 20.468 7.84 20.468 Z M 130.424 20.468 Q 132.188 20.468 133.574 19.642 Q 134.96 18.816 135.758 17.402 Q 136.556 15.988 136.556 14.196 Q 136.556 12.404 135.758 11.004 Q 134.96 9.604 133.574 8.778 Q 132.188 7.952 130.424 7.952 Q 128.688 7.952 127.288 8.778 Q 125.888 9.604 125.076 11.004 Q 124.264 12.404 124.264 14.196 Q 124.264 15.988 125.076 17.402 Q 125.888 18.816 127.288 19.642 Q 128.688 20.468 130.424 20.468 Z M 27.692 20.468 Q 29.456 20.468 30.842 19.642 Q 32.228 18.816 33.026 17.402 Q 33.824 15.988 33.824 14.196 Q 33.824 12.432 33.026 11.018 Q 32.228 9.604 30.842 8.778 Q 29.456 7.952 27.692 7.952 Q 25.956 7.952 24.556 8.778 Q 23.156 9.604 22.344 11.018 Q 21.532 12.432 21.532 14.224 Q 21.532 15.988 22.344 17.402 Q 23.156 18.816 24.556 19.642 Q 25.956 20.468 27.692 20.468 Z M 92.4 20.468 Q 94.164 20.468 95.55 19.642 Q 96.936 18.816 97.734 17.402 Q 98.532 15.988 98.532 14.196 Q 98.532 12.432 97.734 11.018 Q 96.936 9.604 95.55 8.778 Q 94.164 7.952 92.4 7.952 Q 90.664 7.952 89.264 8.778 Q 87.864 9.604 87.052 11.018 Q 86.24 12.432 86.24 14.224 Q 86.24 15.988 87.052 17.402 Q 87.864 18.816 89.264 19.642 Q 90.664 20.468 92.4 20.468 Z M 111.412 20.468 Q 113.176 20.468 114.562 19.642 Q 115.948 18.816 116.746 17.402 Q 117.544 15.988 117.544 14.224 Q 117.544 12.432 116.746 11.018 Q 115.948 9.604 114.562 8.778 Q 113.176 7.952 111.412 7.952 Q 109.676 7.952 108.276 8.778 Q 106.876 9.604 106.064 11.018 Q 105.252 12.432 105.252 14.224 Q 105.252 15.988 106.064 17.402 Q 106.876 18.816 108.276 19.642 Q 109.676 20.468 111.412 20.468 Z M 59.836 21.028 L 59.836 7.392 Q 59.836 7 60.074 6.776 Q 60.312 6.552 60.676 6.552 Q 61.068 6.552 61.292 6.776 Q 61.516 7 61.516 7.392 L 61.516 21.028 Q 61.516 21.392 61.292 21.63 Q 61.068 21.868 60.676 21.868 Q 60.312 21.868 60.074 21.63 Q 59.836 21.392 59.836 21.028 Z M 160.328 21.028 L 160.328 7.392 Q 160.328 7 160.566 6.776 Q 160.804 6.552 161.168 6.552 Q 161.56 6.552 161.784 6.776 Q 162.008 7 162.008 7.392 L 162.008 21.028 Q 162.008 21.392 161.784 21.63 Q 161.56 21.868 161.168 21.868 Q 160.804 21.868 160.566 21.63 Q 160.328 21.392 160.328 21.028 Z M 162.008 12.516 L 160.888 12.516 Q 161.056 10.724 161.868 9.338 Q 162.68 7.952 163.968 7.168 Q 165.256 6.384 166.824 6.384 Q 167.888 6.384 168.476 6.636 Q 169.064 6.888 168.924 7.532 Q 168.84 7.952 168.532 8.036 Q 168.224 8.12 167.79 8.05 Q 167.356 7.98 166.824 7.98 Q 165.424 7.98 164.332 8.568 Q 163.24 9.156 162.624 10.178 Q 162.008 11.2 162.008 12.516 Z M 117.544 21.028 L 117.544 15.904 L 118.076 14.224 L 119.224 14.224 L 119.224 21.028 Q 119.224 21.392 119 21.63 Q 118.776 21.868 118.412 21.868 Q 118.02 21.868 117.782 21.63 Q 117.544 21.392 117.544 21.028 Z" class="fill-current text-gray-600 dark:text-white"></path>
                        </g>
                    </svg>

